<svg width="160" height="216" viewBox="0 0 160 216" fill="none" xmlns="http://www.w3.org/2000/svg">
  <path fill-rule="evenodd" clip-rule="evenodd" d="M34.3344 189.921C42.9586 190.163 51.1054 190.429 59.713 189.921C73.4871 189.069 113.909 190.605 122.795 189.921C123.465 189.869 125.771 190.605 125.819 189.921C126.21 185.158 126.463 136.965 125.303 133.649C124.142 130.332 118.414 114.392 111.116 106.959C109.081 104.951 105.984 104.173 104.273 101.852C102.798 99.3218 102.913 97.8366 101.456 96.5052C100.824 95.9275 99.3332 95.6933 98.2254 94.8913C97.1116 93.784 98.1662 91.3464 97.709 89.8044C96.7667 85.9542 93.2953 83.4841 89.5011 82.902C84.2276 81.6397 78.6603 82.8332 76.1343 86.9772C75.194 88.5197 75.6944 90.3946 74.538 92.8663C74.6206 94.7342 72.4407 95.1855 71.1377 95.9257L68.5502 98.5418C60.5784 103.029 51.2004 105.452 44.2155 111.481C38.2769 117.507 32.3701 124.473 29.7352 132.627C29.1897 134.849 29.0117 137.145 28.7856 139.416C28.1403 146.05 26.3432 152.49 24.7967 158.952C23.0334 167.095 21.3896 175.738 23.7662 183.958C24.4514 185.698 32.7745 189.84 34.3344 189.921Z" fill="white" />
  <path fill-rule="evenodd" clip-rule="evenodd" d="M75.6774 87.6406C75.7465 87.415 76.0438 87.4784 76.0663 87.6927C76.2903 89.8175 76.0086 92.0381 75.7381 94.1488C75.6086 95.1675 75.5338 96.2271 75.3366 97.2316C75.3112 97.3388 75.2873 97.4471 75.2648 97.5544C75.3296 97.6698 75.5212 97.7994 75.6127 97.8881L76.0103 98.2749L76.807 99.0465C78.3663 100.557 79.9253 102.069 81.4845 103.579L83.7732 105.798C84.5579 106.559 85.4494 107.288 86.138 108.136C86.5114 108.597 86.5958 109.162 86.2281 109.655C86.0465 109.898 85.7198 110.076 85.3887 110.113C85.5183 110.293 85.6183 110.497 85.6817 110.724C85.8112 111.186 85.3438 111.754 84.8466 111.561C84.2818 111.344 83.8155 110.955 83.2408 110.769C82.6605 110.58 82.0297 110.544 81.4282 110.645C81.1521 110.692 80.8817 110.761 80.6183 110.848C83.4367 112.146 86.4859 112.891 89.5958 112.998C90.2296 113.02 90.8621 113.011 91.4915 112.969C92.5508 112.9 93.6028 112.739 94.6366 112.48C95.4494 112.276 96.2536 112.019 97.0339 111.709C97.417 111.557 97.7958 111.389 98.1621 111.199L98.1942 111.18C98.277 111.128 99.8072 110.26 99.8339 110.13C99.8606 109.999 99.8606 109.954 99.8108 109.84C99.761 109.727 99.6229 109.648 99.6229 109.648C99.1501 109.446 98.6602 109.258 98.1438 109.255C96.9549 109.248 95.6577 110.127 94.6748 110.726C93.5945 111.384 92.6014 112.153 91.562 112.866C91.538 112.883 91.5114 112.89 91.4859 112.89C91.3762 112.89 91.2746 112.755 91.345 112.649C92.09 111.552 93.0955 110.638 94.1474 109.84L94.5712 109.522C95.5345 108.804 96.6613 108.008 97.8325 107.834C99.2676 107.623 100.766 108.518 102.047 109.042L104.314 109.97C104.718 110.135 105.158 110.276 105.565 110.463L104.615 107.489C104.14 106.002 103.666 104.514 103.197 103.026L103.106 102.734C102.639 101.223 102.21 99.6507 101.432 98.2701C101.246 97.939 101.034 97.6276 100.824 97.3133C100.606 96.9879 100.524 96.6286 100.249 96.3382C99.7058 95.762 98.9267 95.4238 98.1831 95.2027C98.0014 95.1492 98.0551 94.9097 98.2255 94.8913C98.9886 94.8109 99.7163 94.9889 100.406 95.311L100.693 95.4477C101.345 95.7564 101.981 96.0435 102.465 96.5975C103.569 97.8628 104.142 99.4559 104.669 101.028L104.81 101.45C105.007 101.385 106.346 101.794 106.514 101.891C111.535 104.015 115.403 107.968 118.231 112.601C121.33 117.678 123.017 123.478 124.41 129.219C124.84 130.99 125.251 132.767 125.646 134.548C123.886 135.226 122.016 135.58 120.369 136.534C119.741 136.898 120.308 137.872 120.937 137.508C122.48 136.614 124.238 136.284 125.889 135.656C126.784 139.779 127.581 143.925 128.248 148.088C130.297 160.865 131.592 173.85 131.51 186.802C131.508 187.088 131.424 187.408 131.268 187.682C131.359 187.637 131.431 187.584 131.472 187.519C131.992 186.703 133.294 187.46 132.772 188.28L132.696 188.399C132.303 189.004 131.937 189.466 131.248 189.807C130.554 190.151 129.801 190.209 129.035 190.229C126.431 190.297 123.825 190.342 121.218 190.374C120.861 187.585 120.715 184.768 120.223 181.995C120.096 181.282 119.01 181.584 119.136 182.295C119.612 184.973 119.764 187.691 120.096 190.388C114.523 190.448 108.947 190.448 103.378 190.464C95.8304 190.486 88.2842 190.47 80.7373 190.466L77.5029 190.465C68.7846 190.465 60.0662 190.437 51.348 190.379L49.2746 190.365C48.4498 185.501 47.8884 180.595 47.878 175.652C47.8765 174.927 46.7497 174.926 46.7512 175.652C46.7617 180.59 47.3169 185.496 48.1341 190.358C46.0698 190.349 44.0066 190.357 41.9422 190.43L40.8915 190.467C38.7893 190.539 36.6828 190.584 34.5845 190.416C32.2549 190.229 29.8987 189.8 27.81 188.703C26.8693 188.207 26.041 187.574 25.3331 186.83C26.0526 186.411 26.7825 186.01 27.4795 185.553C28.0839 185.158 27.5201 184.181 26.9108 184.58C26.1597 185.072 25.3701 185.5 24.5967 185.955C24.0367 185.207 23.5772 184.377 23.2281 183.482C22.6774 182.069 22.4648 180.549 22.2803 179.052C22.0621 177.29 21.9718 175.513 21.9718 173.738C21.9718 170.004 22.3648 166.281 22.9128 162.592C23.4369 159.059 24.1296 155.553 24.8619 152.059L24.9619 151.582C25.6845 148.147 26.3732 144.702 27.2014 141.291C27.9672 138.137 28.8521 134.997 29.9067 131.918C30.8455 132.499 31.8279 133.007 32.7519 133.612C33.3605 134.01 33.9257 133.035 33.3207 132.639C32.3348 131.993 31.2832 131.457 30.2883 130.826C31.4676 127.529 32.8518 124.309 34.5114 121.226C37.8352 115.05 42.3142 109.525 48.0508 105.448C50.9225 103.407 54.0732 101.738 57.3818 100.523C60.755 99.2832 64.2507 98.6039 67.8253 98.3251C67.9274 98.317 67.9847 98.4115 67.9805 98.4989L67.979 98.5152L68.1198 98.5378C68.1719 98.1842 68.279 97.8417 68.4832 97.5276C68.948 96.8118 69.8296 96.3525 70.5338 95.9129L70.7007 95.809C71.5386 95.2894 72.4228 94.7776 73.3973 94.5954C73.4311 94.5897 73.4521 94.6249 73.4296 94.6518C72.7869 95.3889 71.9652 95.9521 71.2121 96.5755L71.039 96.7199C70.4149 97.2337 69.5443 97.8169 69.5211 98.6758C69.4945 99.6876 69.7014 100.74 69.7762 101.749C69.8508 102.755 69.9028 103.759 69.9296 104.768C70.0269 108.383 69.91 111.998 69.5901 115.598L71.0041 114.651C73.2047 113.177 75.4125 111.708 77.6662 110.328C79.0297 109.493 80.5621 108.778 82.1958 108.811C82.6535 108.819 83.1704 108.886 83.6663 109.026C83.1325 108.521 82.6212 107.982 82.0987 107.474C81.238 106.635 80.3774 105.797 79.517 104.96L77.0357 102.542L74.5535 100.124C73.7846 99.3732 72.8831 98.6816 72.9648 97.498C73.0311 96.554 73.5112 95.6142 73.8394 94.7039C73.8859 94.5729 73.9282 94.4433 73.9676 94.3151C74.6297 92.1142 75.0056 89.8329 75.6774 87.6406ZM107.747 182.071C107.233 181.557 106.436 182.354 106.95 182.868L107.222 183.139C107.675 183.591 108.125 184.058 108.438 184.617L108.484 184.702C108.823 185.344 109.796 184.775 109.457 184.133C109.039 183.339 108.374 182.699 107.747 182.071ZM85.7562 181.926C84.1222 181.614 82.5474 181.614 80.9135 181.926C80.2021 182.062 80.5034 183.149 81.2131 183.013C82.6421 182.74 84.0274 182.74 85.4566 183.013C86.1652 183.148 86.4687 182.062 85.7562 181.926ZM63.6897 170.564C62.9866 170.386 62.6866 171.473 63.3903 171.651L63.7367 171.738C64.9143 172.029 66.0359 172.246 67.2593 171.976C67.9577 171.821 67.6753 170.761 66.9874 170.883L66.9597 170.889C65.8277 171.139 64.7849 170.841 63.6897 170.564ZM102.879 163.242C102.359 162.736 101.561 163.533 102.082 164.039C102.733 164.672 103.499 165.153 104.428 165.178C105.142 165.198 105.152 164.105 104.46 164.053L104.428 164.051C103.805 164.034 103.309 163.661 102.879 163.242ZM36.5657 160.232C37.2145 159.907 36.6445 158.935 35.9972 159.259L32.1031 161.206C31.4543 161.531 32.0243 162.504 32.6717 162.18L36.5657 160.232ZM113.514 160.48C112.789 160.46 112.789 161.587 113.514 161.607C114.195 161.626 114.894 161.885 115.501 162.18C116.151 162.495 116.723 161.524 116.07 161.206C115.276 160.821 114.405 160.505 113.514 160.48ZM77.1291 155.038C77.7255 154.632 77.1624 153.655 76.5604 154.064C75.739 154.623 74.9948 155.283 74.1865 155.858L73.9643 156.012C73.368 156.418 73.9311 157.395 74.5331 156.986C75.429 156.377 76.2332 155.647 77.1291 155.038ZM119.031 146.845C118.305 146.845 118.304 147.972 119.031 147.973L119.168 147.972C119.766 147.969 120.397 147.952 120.954 148.192L121.018 148.22C121.67 148.528 122.243 147.556 121.586 147.247C120.771 146.863 119.917 146.846 119.031 146.845ZM56.4559 146.04L56.5505 146.005C57.228 145.761 56.9359 144.672 56.251 144.918C55.2188 145.289 54.4159 145.99 53.5205 146.598C52.9239 147.003 53.487 147.98 54.0891 147.571C54.8606 147.047 55.5784 146.383 56.4559 146.04ZM98.7191 143.108L98.871 143.026C99.516 142.694 98.9466 141.721 98.3024 142.053C97.791 142.316 97.3334 142.666 96.8316 142.946L96.6797 143.027C96.0348 143.359 96.6041 144.332 97.2484 144C97.7598 143.737 98.2174 143.387 98.7191 143.108ZM81.5777 132.19L81.4617 132.078C80.9431 131.57 80.1457 132.366 80.6649 132.875C81.9615 134.144 83.4944 135.108 85.0408 136.04L85.3221 136.209C85.9453 136.583 86.5125 135.609 85.8908 135.236L85.478 134.987C84.1031 134.158 82.7443 133.302 81.5777 132.19ZM50.3972 131.137C50.8341 130.57 49.8839 130.014 49.4398 130.549L49.4242 130.568C48.9694 131.159 48.4297 131.694 47.8657 132.182L47.7597 132.273C47.4239 132.558 46.8128 133.171 46.3411 133.211C45.6239 133.272 45.6174 134.4 46.3411 134.338C47.071 134.276 47.699 133.762 48.2504 133.322C49.0529 132.681 49.7708 131.951 50.3972 131.137ZM110.343 127.031C110.866 126.539 110.093 125.756 109.565 126.217L109.546 126.234C108.568 127.154 107.16 127.4 105.901 127.712C105.197 127.887 105.495 128.974 106.2 128.799L106.774 128.658C108.061 128.336 109.353 127.962 110.343 127.031ZM88.0277 119.921C87.3246 119.742 87.0246 120.829 87.7283 121.008C88.9234 121.312 90.0553 121.705 91.1631 122.25C91.8115 122.569 92.3831 121.597 91.7318 121.276C90.54 120.69 89.3145 120.248 88.0277 119.921ZM99.538 96.1594C99.5211 96.1087 99.5748 96.0509 99.6267 96.0691C100.891 96.5407 100.219 98.1975 99.8261 99.1892L99.7549 99.3705C99.1394 100.96 98.279 102.507 97.341 103.93C96.3593 105.419 95.2691 106.845 94.0888 108.184C93.5768 108.765 93.0457 109.329 92.4968 109.877L92.2901 110.082C91.7353 110.627 91.0198 111.585 90.1591 111.479C89.2324 111.368 88.7155 110.378 89.3915 109.625C89.8691 109.093 90.5311 108.668 91.0648 108.184C91.5945 107.705 92.1071 107.21 92.607 106.702C93.6297 105.657 94.5987 104.554 95.4846 103.392C96.3414 102.268 97.1614 101.112 97.9069 99.9115L98.055 99.6706C98.6225 98.7365 99.9325 97.3627 99.538 96.1594ZM54.7381 107.967C54.1379 107.556 53.5736 108.532 54.1694 108.94C55.2649 109.689 56.2287 110.596 57.4145 111.212C58.0494 111.542 58.614 110.597 58.0057 110.251L57.9832 110.239C56.7983 109.623 55.8331 108.715 54.7381 107.967Z" fill="black" />
  <path fill-rule="evenodd" clip-rule="evenodd" d="M92.8743 97.1463C89.7481 97.1648 87.0912 96.2774 85.0639 94.8093C82.5341 93.9069 79.4825 92.5149 77.629 91.0536C76.906 91.2382 76.041 90.4699 75.4877 90.0644C72.0476 87.4945 69.3473 83.7329 68.5472 79.9649C67.312 81.5247 65.5542 81.5895 63.8704 80.8143C60.3408 78.8118 60.4728 74.5954 61.7435 71.4451C59.0721 65.4488 57.2207 49.6193 61.2986 43.2307C62.1327 42.2748 63.3567 41.7031 64.238 40.7228C65.0222 39.8667 65.7681 38.991 66.6805 38.3136C69.4645 36.1939 74.2594 35.0653 77.2617 34.5345C89.7943 31.8239 99.4236 36.6959 110.776 40.8055C110.123 42.44 109.219 43.9306 108.183 45.3204C111.001 46.3728 109.707 48.7389 107.52 49.9384L106.219 49.3055C108.248 56.5683 112.918 74.6292 110.903 80.4291C109.296 89.4777 102.244 97.212 92.8743 97.1463Z" fill="white" />
  <path fill-rule="evenodd" clip-rule="evenodd" d="M94.6852 97.9255C90.626 98.3424 85.8038 97.3824 83.0977 94.0837C83.0168 93.9849 82.9814 93.8731 82.9793 93.7652C82.9769 93.6451 83.0172 93.5292 83.0868 93.4389C83.1599 93.3441 83.2641 93.278 83.3834 93.2565C83.484 93.2385 83.5985 93.2501 83.7167 93.3164L83.9655 93.455C85.8136 94.4761 87.7329 95.347 89.8273 95.7196C91.9837 96.1033 94.1795 96.0604 96.3168 95.5731C100.21 94.6858 103.361 92.4222 105.68 89.4374C108.268 86.1066 109.822 81.8785 110.218 77.6501C110.698 72.5258 109.584 67.4326 108.432 62.4709C107.222 57.2575 105.899 52.0706 104.362 46.944C104.315 46.7897 104.303 46.6452 104.316 46.5122C103.863 46.3345 103.38 46.3838 102.9 46.546C102.023 46.8424 101.149 47.5107 100.42 48.0623C100.156 48.2621 99.91 48.4478 99.6893 48.5989C98.7854 49.2177 97.7972 49.6629 96.6923 49.7329C95.5431 49.8056 94.4165 49.4483 93.3728 49.0012C92.8426 48.774 92.3209 48.5384 91.8013 48.3036C90.3217 47.6353 88.8596 46.9736 87.2618 46.5436C85.1209 45.9672 82.9105 45.6833 80.6932 45.7036C76.7361 45.7398 72.7668 46.7588 70.3416 50.1068C69.3591 51.4631 68.7186 53.0219 69.2182 54.6957C69.4899 55.6062 70.0027 56.4328 70.5625 57.1931L70.7545 57.452C71.0615 57.8693 71.3282 58.285 71.4086 58.7275C71.476 59.0982 71.4235 59.4904 71.1588 59.9202C70.9923 60.1908 70.7804 60.4335 70.5672 60.6753C70.4135 60.8498 70.2593 61.0239 70.1267 61.2114C69.8593 61.5894 69.6226 61.9965 69.437 62.4211C69.0735 63.2522 68.9193 64.1463 68.8871 65.048C68.848 66.1359 69.0009 67.2001 69.1526 68.2659C69.2601 69.0216 69.3674 69.778 69.4108 70.5436C69.4183 70.6772 69.3775 70.7767 69.3203 70.8504C69.2503 70.9405 69.1482 70.9974 69.032 71.0131C68.9967 71.0179 68.9601 71.0186 68.9235 71.0154C68.9415 71.089 68.9574 71.163 68.9712 71.2373C68.8977 71.1428 68.8196 71.0511 68.7371 70.9625C68.7318 70.9598 68.7266 70.9571 68.7214 70.9542C68.6364 70.9075 68.5643 70.8363 68.5189 70.7446C68.4021 70.636 68.2784 70.533 68.1487 70.4361C67.4735 69.9321 66.685 69.6334 65.8941 69.6235C65.1316 69.6139 64.3672 69.8737 63.7796 70.4222C62.6115 71.5124 62.2693 73.292 62.2571 74.8201C62.2447 76.3798 62.6056 78.2518 63.965 79.2202C64.5103 79.6087 65.1763 79.8421 65.8473 79.8488C66.4035 79.8544 66.9357 79.6575 67.4597 79.47C67.6212 79.4122 67.7821 79.3547 67.9425 79.3024C68.1248 79.2431 68.2909 79.2468 68.4357 79.2902C68.5989 79.3391 68.7374 79.4401 68.8409 79.5748C68.9439 79.709 69.0115 79.8769 69.0324 80.0528C69.0527 80.2231 69.0294 80.3999 68.9573 80.5593C68.9392 80.5995 68.9201 80.6385 68.9003 80.6765L69.1993 81.1684C70.3441 83.0468 71.5091 84.8909 73.0366 86.5054C73.9134 87.4321 74.8428 88.3066 75.8623 89.0721L76.0093 89.1813C76.0973 89.2459 76.1949 89.3256 76.299 89.4107C76.5963 89.6541 76.9527 89.9804 77.2854 89.9933C77.3841 89.9971 77.4703 89.9848 77.5487 89.9745C77.7382 89.9496 77.8971 89.9423 78.0533 90.006C78.1789 90.0573 78.3093 90.153 78.4432 90.3508C78.5338 90.4846 78.5802 90.6524 78.5802 90.8227C78.5802 90.9938 78.5332 91.1649 78.4495 91.3002C78.2763 91.5802 78.0668 91.7537 77.8394 91.8521C77.586 91.9619 77.3059 91.9787 77.0147 91.9244C76.2975 91.7906 75.5035 91.1963 74.9982 90.8084L74.9005 90.7335C73.781 89.8792 72.7199 88.9339 71.7872 87.8768C70.1987 86.0766 68.7721 83.9552 68.0393 81.6373C67.5229 81.9767 66.8848 82.1378 66.2176 82.1632C65.2456 82.2001 64.2169 81.95 63.4588 81.5903C61.7881 80.7978 60.7734 79.2987 60.2978 77.5748C59.7456 75.5729 59.9251 73.2713 60.6242 71.473C60.6445 71.4207 60.6656 71.3686 60.6874 71.3157C58.535 65.8605 57.8732 59.8028 58.0575 53.981C58.1438 51.256 58.3293 48.3969 58.9719 45.7392C59.26 44.548 59.7604 43.4136 60.5595 42.4758C61.0151 41.9411 61.5741 41.5247 62.1356 41.1095C62.622 40.7499 63.1102 40.3911 63.5211 39.9422L63.7153 39.729C63.7574 39.6826 63.7994 39.6363 63.8413 39.5901C64.5508 38.8078 65.2415 38.0488 66.1024 37.4073C67.1008 36.6634 68.2026 36.0813 69.3474 35.5977C71.8138 34.5565 74.4683 33.9321 77.0942 33.4491C82.7753 32.4043 88.6072 32.3527 94.2187 33.8214C96.8276 34.5041 99.3596 35.4386 101.887 36.372C102.122 36.4587 102.357 36.5453 102.591 36.6318C104.556 37.3553 106.521 38.0758 108.486 38.7963C109.4 39.1311 110.313 39.4659 111.227 39.8011C111.425 39.8738 111.619 40.0305 111.729 40.2252C111.837 40.4151 111.869 40.6367 111.782 40.8572C111.222 42.2777 110.515 43.6103 109.654 44.8548C109.953 45.0583 110.208 45.329 110.4 45.6458C110.644 46.0464 110.788 46.5208 110.798 47.024C110.83 48.7093 109.297 49.8518 108.025 50.6781C107.907 50.7552 107.79 50.8007 107.676 50.8215C108.909 55.5357 110.088 60.2658 111.091 65.0333L111.16 65.3638C112.192 70.3534 112.859 75.4453 111.882 80.5011C111.041 84.8547 109.087 89.0564 106.035 92.2997C103.043 95.4784 99.0286 97.4794 94.6852 97.9255ZM67.9571 69.2225C67.4256 67.5352 67.1439 65.6993 67.3473 63.9889C67.4753 62.9137 67.7984 61.8786 68.3245 60.931C68.6259 60.3882 68.9931 59.8857 69.394 59.4125L69.5322 59.2536C69.6022 59.1724 69.6718 59.0978 69.6934 59.0042C69.706 58.9499 69.6932 58.8904 69.6602 58.8194C69.587 58.6621 69.451 58.5105 69.3237 58.3625C69.2428 58.2685 69.1638 58.1762 69.0974 58.0864C67.9326 56.5089 67.0638 54.6309 67.3462 52.6305C67.6217 50.6788 68.9003 48.8595 70.2615 47.4885C73.2587 44.4695 77.9056 43.7758 81.9764 43.9423C84.3461 44.0392 86.7119 44.457 88.9686 45.1868C90.0814 45.5468 91.1694 45.9851 92.2268 46.4876L92.4609 46.6C92.5872 46.6613 92.7134 46.7232 92.8397 46.7851C93.6662 47.1906 94.4958 47.6 95.393 47.8205C97.1451 48.2508 98.3337 47.3443 99.5829 46.4301C100.011 46.1168 100.446 45.7992 100.908 45.5204L101.003 45.4642C101.836 44.9808 102.833 44.6555 103.791 44.6701C104.623 44.6828 105.425 44.9485 106.079 45.5764C106.213 45.7055 106.29 45.8462 106.326 45.9863C106.399 46.0877 106.457 46.2086 106.495 46.3515C106.729 47.2301 106.962 48.1093 107.194 48.9888L107.384 48.8664C107.947 48.5009 108.558 48.0832 108.835 47.4717C108.941 47.2363 108.926 46.8442 108.792 46.5559C108.745 46.4552 108.683 46.3656 108.598 46.3097C108.535 46.2691 108.46 46.25 108.373 46.257C108.161 46.2843 107.966 46.2533 107.801 46.1835C107.611 46.103 107.459 45.9706 107.361 45.811C107.26 45.6476 107.214 45.4555 107.239 45.2562C107.26 45.0849 107.333 44.906 107.479 44.7379C108.439 43.6313 109.247 42.4107 109.861 41.0857L105.798 39.5819C104.35 39.046 102.901 38.5108 101.451 37.9777L100.658 37.6859C98.0219 36.7188 95.3709 35.7736 92.6298 35.1509C87.1823 33.9136 81.5016 34.2044 76.0692 35.3691L75.741 35.4401C73.4613 35.9373 71.1511 36.539 69.0586 37.5848C68.0316 38.0981 67.0554 38.7223 66.217 39.5109C65.8467 39.8592 65.512 40.2405 65.1771 40.6212C64.7079 41.1549 64.238 41.6871 63.6801 42.1366L63.1622 42.5515C62.3917 43.1725 61.6968 43.7777 61.262 44.7409C60.8074 45.7478 60.5905 46.8603 60.4134 47.9442C59.967 50.6746 59.7907 53.4487 59.8075 56.2144C59.836 60.8583 60.5412 65.4075 61.4322 69.9407C62.147 68.9173 63.1511 68.1239 64.4399 67.9547C65.2802 67.8444 66.1132 68.0011 66.8355 68.3728C67.253 68.5876 67.6335 68.8742 67.9571 69.2225ZM66.6068 74.7368C65.6656 74.372 64.6775 74.2526 63.6818 74.427C63.5775 74.4452 63.478 74.4234 63.3944 74.3748C63.3096 74.3256 63.2428 74.2476 63.2065 74.1616C63.1646 74.0621 63.1625 73.9544 63.1995 73.8588C63.2316 73.7758 63.2927 73.6952 63.4053 73.6414C64.4834 73.1267 65.6818 72.8996 66.8712 73.0612L66.9888 73.0779C67.5969 73.1681 68.452 73.358 69.0932 73.7317C69.597 74.0254 69.9657 74.4301 70.0575 74.9589C70.1053 75.2345 70.037 75.5221 69.8782 75.7307C69.7247 75.9323 69.49 76.0667 69.1863 76.058C68.6505 76.0428 68.3333 75.8163 67.9517 75.5229C67.9054 75.4873 67.8579 75.4508 67.8085 75.4139C67.4397 75.1378 67.0367 74.9034 66.6068 74.7368Z" fill="black" />
  <path fill-rule="evenodd" clip-rule="evenodd" d="M95.4347 85.5161C94.4879 85.1297 93.6432 84.4851 93.0255 83.6618C92.8108 83.3755 92.7551 83.0733 92.8002 82.7968C92.8508 82.486 93.0347 82.2043 93.2854 82.0153C93.5369 81.8257 93.8514 81.7322 94.1556 81.7799C94.4198 81.8213 94.6829 81.966 94.8911 82.2663L94.9346 82.3263C95.3018 82.8232 95.7802 83.231 96.3254 83.4938C96.8509 83.7471 97.4386 83.8653 98.0468 83.7966C99.205 83.6657 100.003 83.039 100.852 82.188C100.957 82.0806 101.062 81.9698 101.168 81.8572C101.235 81.7551 101.328 81.6895 101.431 81.6551C101.545 81.6169 101.674 81.6191 101.792 81.6604C101.907 81.7003 102.009 81.7758 102.077 81.8763C102.142 81.9719 102.179 82.0899 102.167 82.2257C102.089 83.1076 101.629 83.8947 100.974 84.5127C100.247 85.1991 99.2829 85.6739 98.3755 85.8405C97.3758 86.0239 96.3571 85.8925 95.4347 85.5161ZM98.8471 71.9108C99.9107 72.5576 101.531 74.0656 100.387 75.669C99.0403 77.0827 97.1012 75.4618 96.1457 74.7287C95.2597 74.1605 94.2642 75.6218 95.0862 76.2852C101.991 81.3992 104.793 72.0799 99.385 71.1504C98.7896 71.048 98.5684 71.7108 98.8471 71.9108ZM86.4737 65.9619C86.5912 64.5027 88.8127 64.1714 89.0337 65.6153C89.2316 66.9088 88.9986 68.097 88.4163 69.2615C87.8598 70.3741 86.4611 69.855 86.3553 68.8419C86.2135 67.484 86.4006 66.8696 86.4737 65.9619ZM103.384 65.3159C103.694 64.9101 104.141 64.6331 104.677 64.7896C106.351 65.279 105.857 67.6564 105.269 68.8136C104.95 69.442 103.917 69.6014 103.451 69.0481C102.69 68.1457 102.326 66.3438 103.293 65.455C103.319 65.409 103.348 65.3627 103.384 65.3159ZM88.3927 59.5769L88.6571 59.5306C89.4751 59.3891 90.4922 59.2531 91.0708 59.911C91.3777 60.2598 91.4834 60.9083 91.0708 61.2422C90.3452 61.8297 89.543 61.6021 88.6734 61.6518C87.9568 61.6929 87.268 61.8116 86.5777 62.009C85.0634 62.442 83.8294 63.2324 82.5361 64.1004C82.3663 64.2142 82.1931 63.9971 82.2741 63.8383C83.0207 62.3753 84.4676 61.1736 85.9169 60.441C86.6904 60.05 87.5369 59.7257 88.3927 59.5769ZM101.858 58.9216L102.061 58.963C104.263 59.4235 107.124 60.3435 108.167 62.5077C108.207 62.8137 108.165 62.8793 108.131 62.9221L108.12 62.9364C108.091 62.973 108.069 63.0234 107.936 63.0651C107.9 63.0563 107.863 63.047 107.825 63.0372C107.347 62.9118 106.969 62.7392 106.602 62.56L106.205 62.3643C105.745 62.1384 105.28 61.9206 104.788 61.7599C103.737 61.417 102.656 61.1754 101.558 61.0464C101.32 61.0184 101.091 60.9381 100.91 60.8004C100.738 60.6697 100.607 60.4888 100.547 60.2483C100.47 59.937 100.492 59.7014 100.659 59.4206C100.785 59.2097 100.964 59.0635 101.171 58.9796C101.381 58.894 101.62 58.8739 101.858 58.9216Z" fill="black" />
</svg>
